# xmcd CD database file
#
# Track frame offsets:
#	150
#	14105
#	33953
#	50475
#	66367
#	81464
#	95733
#	107550
#	120709
#	136809
#	148920
#	166429
#	182504
#	201952
#	221179
#	243595
#
# Disc length: 4331 seconds
#
# Revision: 0
# Processed by: cddbd v1.5.1PL0 Copyright (c) Steve Scherf et al.
# Submitted via: Feurio! 1.67 - http://www.feurio.com
#
DISCID=f810e910
DTITLE=Taxmeni - CALAMITY JANE 4 
DYEAR=1900
DGENRE=Country
TTITLE0=Rytiri oblak
TTITLE1=Starej dobrej chopper
TTITLE2=Sestrelen
TTITLE3=Sundejte Hartmanna
TTITLE4=Konvoj z Murmanska
TTITLE5=Kavalir nebe
TTITLE6=Proc jenom dabel dnes oblohou vladne
TTITLE7=Biggles
TTITLE8=Vlcak Ant - hrdinny letec RAF
TTITLE9=Letu zdar
TTITLE10=Hallo Mr. Irving
TTITLE11=Kanadani a Hercegovina
TTITLE12=Pesti ve tme
TTITLE13=Ve jmenu Panny Marie Svatohostynske
TTITLE14=Je na Zapad cesta dlouha (Pilots of Czechoslovakia)
TTITLE15=Fotobonus
EXTD=Comments: CD - Nr.070104-2 Brothers records 2004\r\n
EXTT0=
EXTT1=
EXTT2=
EXTT3=
EXTT4=
EXTT5=
EXTT6=
EXTT7=
EXTT8=
EXTT9=
EXTT10=
EXTT11=
EXTT12=
EXTT13=
EXTT14=
EXTT15=
PLAYORDER=
